<svg xmlns="http://www.w3.org/2000/svg" xmlns:xlink="http://www.w3.org/1999/xlink" width="140" height="140" viewBox="0 0 140 140">
  <defs>
    <style>
      .cls-1 {
        fill: #d4fdff;
      }

      .cls-2 {
        filter: url(#AI_GaussianBlur_7);
      }

      .cls-3 {
        fill: #666;
      }

      .cls-4 {
        fill: #fff;
      }

      .cls-5 {
        fill: #ffc716;
      }

      .cls-6 {
        fill: #d23b00;
      }

      .cls-7 {
        fill: #e88300;
      }
    </style>
    <filter id="AI_GaussianBlur_7" name="AI_GaussianBlur_7">
      <feGaussianBlur stdDeviation="7"/>
    </filter>
  </defs>
  <g id="bomb">
    <path class="cls-1" d="M45.36,42.26a4.4,4.4,0,0,0-3.38,0,39.71,39.71,0,0,0-22,22.05,4.4,4.4,0,0,0,0,3.38,4.11,4.11,0,0,0,2.47,2.25,6,6,0,0,0,1.58.45A3.94,3.94,0,0,0,28,67.69a34,34,0,0,1,6.75-10.35,29.55,29.55,0,0,1,10.35-6.76,4.46,4.46,0,0,0,2.48-2.47,4.4,4.4,0,0,0,0-3.38A4.89,4.89,0,0,0,45.36,42.26Z"/>
    <g id="shadow-2" data-name="shadow" class="cls-2">
      <path class="cls-3" d="M103.14,62.76a48.64,48.64,0,0,1,6.08,23.63,49.62,49.62,0,0,1-3.83,18.9,47.55,47.55,0,0,1-25.88,25.88,48.55,48.55,0,0,1-37.8,0,47.55,47.55,0,0,1-25.88-25.88,48.55,48.55,0,0,1,0-37.8A47.55,47.55,0,0,1,41.71,41.61a49.62,49.62,0,0,1,18.9-3.83,48.64,48.64,0,0,1,23.63,6.08l4.5-4.5a4.35,4.35,0,0,1,6.3,0l4.73,4.72L116.65,27.2l3.15,3.15L102.92,47.23,107.64,52a4.35,4.35,0,0,1,0,6.3Z"/>
    </g>
    <g>
      <path class="cls-4" d="M46.36,43.26a4.4,4.4,0,0,0-3.38,0,39.71,39.71,0,0,0-22,22.05,4.4,4.4,0,0,0,0,3.38,4.11,4.11,0,0,0,2.47,2.25,6,6,0,0,0,1.58.45A3.94,3.94,0,0,0,29,68.69a34,34,0,0,1,6.75-10.35,29.55,29.55,0,0,1,10.35-6.76,4.46,4.46,0,0,0,2.48-2.47,4.4,4.4,0,0,0,0-3.38A4.89,4.89,0,0,0,46.36,43.26Z"/>
      <path class="cls-5" d="M111.17,17.15a2.16,2.16,0,0,0,3.15,0A1.6,1.6,0,0,0,115,15.8a2,2,0,0,0-.68-1.57L108,7.93a2.16,2.16,0,0,0-3.15,0,2,2,0,0,0-.68,1.57,2.05,2.05,0,0,0,.68,1.58Z"/>
      <path class="cls-6" d="M122.2,18.05a2,2,0,0,0,1.57-.67l6.3-6.3a2.45,2.45,0,0,0,.68-1.58,2,2,0,0,0-.68-1.57,2.16,2.16,0,0,0-3.15,0l-6.3,6.3a2.19,2.19,0,0,0,0,3.15A2,2,0,0,0,122.2,18.05Z"/>
      <path class="cls-7" d="M132.32,19a2,2,0,0,0-1.57-.67h-6.53A2.31,2.31,0,0,0,122,20.53a2.33,2.33,0,0,0,2.25,2.25h6.53A2.33,2.33,0,0,0,133,20.53,2.05,2.05,0,0,0,132.32,19Z"/>
      <path class="cls-7" d="M117.47,5a2,2,0,0,0-1.57.68,2,2,0,0,0-.68,1.57v6.53a2,2,0,0,0,.68,1.57,2.16,2.16,0,0,0,3.15,0,2,2,0,0,0,.67-1.57V7.25a2,2,0,0,0-.67-1.57A2.05,2.05,0,0,0,117.47,5Z"/>
      <path d="M113.65,21.2,96.77,38.08,92,33.36a4.35,4.35,0,0,0-6.3,0l-4.5,4.5a48.64,48.64,0,0,0-23.63-6.08,49.62,49.62,0,0,0-18.9,3.83A47.55,47.55,0,0,0,12.83,61.49a48.55,48.55,0,0,0,0,37.8,47.55,47.55,0,0,0,25.88,25.88,48.55,48.55,0,0,0,37.8,0,47.55,47.55,0,0,0,25.88-25.88,49.62,49.62,0,0,0,3.83-18.9,48.64,48.64,0,0,0-6.08-23.63l4.5-4.5a4.35,4.35,0,0,0,0-6.3l-4.72-4.73L116.8,24.35Zm-65,27.91a4.46,4.46,0,0,1-2.48,2.47,29.55,29.55,0,0,0-10.35,6.76A34,34,0,0,0,29,68.69,3.94,3.94,0,0,1,25,71.39a6,6,0,0,1-1.58-.45,4.11,4.11,0,0,1-2.47-2.25,4.4,4.4,0,0,1,0-3.38A39.71,39.71,0,0,1,43,43.26a4.4,4.4,0,0,1,3.38,0,4.89,4.89,0,0,1,2.25,2.47A4.4,4.4,0,0,1,48.61,49.11Z"/>
      <path class="cls-5" d="M123.77,23.68A2.25,2.25,0,0,0,120,25.25a2,2,0,0,0,.67,1.58l6.3,6.3a2.16,2.16,0,0,0,3.15,0,2.16,2.16,0,0,0,0-3.15Z"/>
    </g>
  </g>
</svg>
