<svg xmlns="http://www.w3.org/2000/svg" xmlns:xlink="http://www.w3.org/1999/xlink" width="160" height="140" viewBox="0 0 160 140">
  <defs>
    <style>
      .cls-1 {
        filter: url(#AI_GaussianBlur_7);
      }

      .cls-2 {
        fill: #666;
      }

      .cls-3 {
        fill: #fc2103;
      }

      .cls-4 {
        fill: #ce1705;
      }

      .cls-5 {
        fill: #ff765f;
      }

      .cls-6 {
        fill: #fa9;
      }
    </style>
    <filter id="AI_GaussianBlur_7" name="AI_GaussianBlur_7">
      <feGaussianBlur stdDeviation="7"/>
    </filter>
  </defs>
  <g id="heart">
    <g class="cls-1">
      <path class="cls-2" d="M148,57.15C145.76,39,132.61,23.9,116,20.51a36,36,0,0,0-7.12-.72c-9.54,0-18.44,3.88-25.81,11.22-7.38-7.34-16.28-11.22-25.82-11.22a35.89,35.89,0,0,0-7.11.72C33.61,23.9,20.45,39,18.19,57.15c-1.7,13.73.73,48.75,60,77.49L83.1,137l5-2.42C147.3,105.89,149.72,70.87,148,57.15Z"/>
    </g>
    <g>
      <path class="cls-3" d="M80.11,37.94C49.25-15.2-27.7,65.36,80,117.18v.13l.14-.07.13.07v-.13C187.91,65.36,111-15.2,80.11,37.94Z"/>
      <path class="cls-4" d="M77.29,121.27C20.86,93.9,18.44,61.44,20,48.75,22,32.6,33.59,19.24,48.15,16.27a31.37,31.37,0,0,1,6.14-.63c9.78,0,18.79,4.81,25.82,13.67,7-8.86,16-13.67,25.81-13.67a30.72,30.72,0,0,1,6.15.63c14.55,3,26.12,16.33,28.13,32.48,1.58,12.69-.84,45.14-57.23,72.5l-2.86,1.39Zm-23-95.91a20.41,20.41,0,0,0-4.16.43C39.55,27.94,31.15,37.87,29.65,50c-1.31,10.52,1.06,37.45,50.46,61.89C129.51,87.4,131.87,60.47,130.57,50c-1.51-12.08-9.91-22-20.45-24.16a20.41,20.41,0,0,0-4.16-.43c-8.34,0-16,5.33-21.65,15l-4.2,7.23-4.2-7.23C70.28,30.69,62.59,25.36,54.25,25.36Z"/>
      <path class="cls-5" d="M144,48.29c-2.2-17.74-15-32.43-31.13-35.72a34.52,34.52,0,0,0-6.9-.7h0c-9.63,0-18.54,4.08-25.81,11.69C72.83,16,63.92,11.87,54.29,11.87a34.35,34.35,0,0,0-6.89.7c-16.13,3.29-28.93,18-31.14,35.72-1.67,13.49.76,47.95,59.38,76.38l1.17.56,3.29,1.61,3.3-1.6,1.22-.59C143.2,96.22,145.62,61.78,144,48.29ZM80.11,116C26.92,90.33,24.48,60.94,25.9,49.48c1.7-13.66,11.33-24.92,23.43-27.39a24.47,24.47,0,0,1,4.92-.51c9.67,0,18.57,6,24.92,16.9l.94,1.61L81,38.48c6.35-10.94,15.25-16.9,24.92-16.9a24.47,24.47,0,0,1,4.92.51c12.1,2.47,21.73,13.73,23.43,27.39C135.74,60.94,133.29,90.33,80.11,116Z"/>
      <path class="cls-6" d="M145,48.15C142.76,30,129.61,14.9,113,11.51a36,36,0,0,0-7.12-.72c-9.54,0-18.44,3.88-25.81,11.22-7.38-7.34-16.28-11.22-25.82-11.22a35.89,35.89,0,0,0-7.11.72C30.61,14.9,17.45,30,15.19,48.15c-1.7,13.73.73,48.75,60,77.49L80.1,128l5-2.42C144.3,96.89,146.72,61.87,145,48.15ZM84.15,123.68l-4,2-4-1.94c-58-28.13-60.42-62-58.78-75.28,2.15-17.28,14.6-31.59,30.28-34.79A33.8,33.8,0,0,1,54.29,13c9.27,0,17.93,3.92,25,11.35l.78.82.78-.82c7.1-7.43,15.76-11.35,25-11.36a33.18,33.18,0,0,1,6.69.69c15.67,3.2,28.12,17.51,30.27,34.79h0C144.53,61.68,142.1,95.55,84.15,123.68Z"/>
    </g>
  </g>
</svg>
